<?xml version="1.0" encoding="UTF-8"?>
<svg xmlns="http://www.w3.org/2000/svg" xmlns:xlink="http://www.w3.org/1999/xlink" version="1.1" viewBox="0 0 72 72">
  <!-- Generator: Adobe Illustrator 30.0.0, SVG Export Plug-In . SVG Version: 2.1.1 Build 123)  -->
  <defs>
    <style>
      .st0 {
        fill: none;
      }

      .st1 {
        fill: #fff;
      }

      .st2 {
        fill: #f47421;
      }

      .st3 {
        clip-path: url(#clippath);
      }
    </style>
    <clipPath id="clippath">
      <rect class="st0" x="6.7" y="17.2" width="58.6" height="37.7"/>
    </clipPath>
  </defs>
  <g id="Layer_2">
    <rect class="st2" width="72" height="72"/>
  </g>
  <g id="Layer_1">
    <g class="st3">
      <g>
        <path class="st1" d="M15.4,25.2s0,0,0,0c0,0,0-.1-.1-.2.5-1,.3-2.1-.4-2.8-.3-.2-.6-.4-.9-.4.7-.4,1.4-.8,2.2-1.2.7-.4,1.5-.8,2.3-1.2,0,0,0,0,0,.1v.3c0,0,.3-.1.3-.1.3-.2.6-.3.9-.3.5,0,.9.2,1.1.7.5.9,0,1.7-.7,2.1h-.2c0,.1.2.3.2.3,0,0,0,0,0,.1-.8.5-1.5,1-2.3,1.5-.7.5-1.3.9-2,1.4l-.4-.2Z"/>
        <path class="st1" d="M12,29.4c0-1-.6-1.7-1.5-1.9-.2,0-.3,0-.5,0-.4,0-.8.1-1.1.4l-.2-.7c.5-.7,1-1.3,1.6-2,.6-.7,1.1-1.4,1.7-2.1,0,0,0,0,0,0l.2.2.2-.2c.3-.5.8-.8,1.2-.8s.5.1.8.3c.7.6.6,1.6,0,2.3v.2c-.1,0,0,.1,0,.1,0,0,0,0,.1,0-.6.8-1.1,1.6-1.6,2.4-.4.6-.8,1.2-1.2,1.8"/>
        <path class="st1" d="M10.5,35.9c-.4-.7-1-1.2-1.7-1.2-.2,0-.4,0-.6,0-.3,0-.6.3-.9.5h0s-.4-.5-.4-.5c.2-.8.4-1.7.7-2.6.3-.9.5-1.7.7-2.7,0,0,0,0,0,0h.2c0,.1,0-.1,0-.1,0-.4.3-.8.5-1,.2-.2.5-.4.8-.4s.2,0,.3,0c.9.2,1.1,1.2.9,2v.3c0,0,.2,0,.2,0,0,0,0,0,.1,0-.2,1-.4,1.9-.5,2.8-.1.9-.3,1.7-.5,2.5h-.2Z"/>
        <path class="st1" d="M8.4,43.1c-.2-.8-.4-1.7-.6-2.6-.2-.9-.4-1.8-.6-2.7,0,0,0,0,.1,0h.3s0-.3,0-.3c-.2-.8,0-1.8.9-2,.1,0,.3,0,.4,0,.6,0,1.1.5,1.3,1.3v.3c0,0,.3-.1.3-.1,0,0,0,0,0,0,.3,1,.6,1.8.8,2.7.3.8.5,1.6.8,2.4l-.2.2s0,0-.1,0c-.4-.4-.9-.6-1.4-.6s-.9.2-1.2.5c-.3.3-.5.6-.6,1h-.2Z"/>
        <path class="st1" d="M12.6,49.6c-.5-.7-1-1.4-1.5-2.1-.5-.7-1-1.5-1.6-2.2,0,0,0,0,.1,0h.2c0-.1-.2-.3-.2-.3-.5-.6-.7-1.6,0-2.3.2-.2.5-.3.8-.3.4,0,.9.2,1.2.7l.2.2.2-.2s0,0,0,0c.6.7,1.2,1.4,1.8,2.1.6.6,1.1,1.2,1.6,1.9v.5c-.2,0-.3,0-.4,0-.8,0-1.4.4-1.8,1.2-.1.3-.2.7-.2,1h-.6Z"/>
        <path class="st1" d="M19.2,53.8c-.7-.4-1.4-.8-2.2-1.2-.7-.4-1.5-.9-2.3-1.3,0,0,0,0,0-.1v-.2c.1,0,0-.1,0-.1-.7-.4-1.3-1.1-.9-2.1.2-.5.6-.8,1.2-.8s.5,0,.8.2h.2c0,.1,0-.1,0-.1,0,0,0,0,0-.1.8.4,1.6.8,2.4,1.1.8.3,1.5.6,2.2,1v.6c-.9.3-1.5,1.1-1.5,2.2,0,.3,0,.6.2.8l-.4.2Z"/>
        <path class="st1" d="M21.9,54.4s0,0,0-.1v-.3s-.2,0-.2,0c0,0,0,0-.1,0-.4,0-.8-.1-1-.3-.3-.2-.4-.6-.5-1,0-.4.1-.8.4-1.1.3-.3.7-.4,1.1-.5h.3s0-.3,0-.3c0,0,0,0,0-.1.9,0,1.8-.2,2.6-.3.8-.1,1.6-.2,2.4-.3h0c0,0,0,.2,0,.2,0,0,0,.2.1.4-.2.4-.3.8-.3,1.2,0,.6.2,1.2.7,1.6,0,0,0,0,0,0h0c0,.1-.3.7-.3.7-.6,0-1.2,0-1.6,0h0c-.3,0-.6,0-.8,0-.3,0-.6,0-.9,0-.5,0-1.1,0-1.7,0"/>
        <path class="st1" d="M56.2,25.4c-.7-.4-1.3-.9-2-1.4-.7-.5-1.5-1-2.3-1.5,0,0,0,0,0-.1l.2-.2h-.2c-.7-.5-1.2-1.4-.7-2.2.2-.5.6-.7,1.1-.7s.6,0,.9.3h.2c0,.1,0-.1,0-.1,0,0,0,0,0-.1.8.5,1.5.9,2.3,1.2.8.4,1.5.8,2.2,1.2-.3,0-.6.2-.9.4-.8.7-1,1.8-.4,2.8,0,0,0,.2-.1.2,0,0,0,0,0,0l-.4.2Z"/>
        <path class="st1" d="M60,29.4c-.4-.6-.8-1.2-1.2-1.8-.5-.8-1-1.6-1.5-2.3,0,0,0,0,.1,0h.2c0-.1-.1-.3-.1-.3-.5-.7-.7-1.6,0-2.3.2-.2.5-.3.8-.3.4,0,.9.3,1.2.8l.2.2.2-.2s0,0,0,0c.5.7,1.1,1.4,1.7,2.1.6.7,1.1,1.3,1.6,2l-.2.7c-.3-.2-.7-.4-1.1-.4-.2,0-.3,0-.5,0-.9.2-1.4,1-1.5,1.9"/>
        <path class="st1" d="M61.4,35.8c-.2-.8-.3-1.7-.5-2.5-.1-.9-.3-1.9-.5-2.8,0,0,0,0,.1,0h.3v-.3c-.2-.8,0-1.8.9-2,.1,0,.2,0,.3,0,.6,0,1.1.5,1.3,1.4v.3c0,0,.3-.1.3-.1,0,0,0,0,0,0,.2.9.5,1.8.7,2.7.3.9.5,1.7.7,2.6l-.4.5h0c-.2-.2-.5-.4-.9-.5-.2,0-.4,0-.6,0-.7,0-1.3.4-1.7,1.2h-.2Z"/>
        <path class="st1" d="M63.4,43.1c0-.4-.3-.7-.6-1-.4-.3-.8-.5-1.2-.5s-1,.2-1.4.6c0,0,0,0-.1,0l-.2-.2c.2-.8.5-1.6.8-2.4.3-.9.6-1.8.8-2.7,0,0,0,0,0,0h.2c0,.1,0-.1,0-.1.2-.8.7-1.3,1.3-1.3s.3,0,.4,0c.9.3,1.1,1.2.9,2v.2c0,0,.2,0,.2,0,0,0,0,0,.1,0-.2.9-.4,1.8-.6,2.7-.2.9-.3,1.8-.6,2.6h-.2Z"/>
        <path class="st1" d="M58.8,49.5c0-.3,0-.7-.2-1-.3-.8-1-1.2-1.7-1.2,0,0-.2,0-.3,0v-.5c.4-.6,1-1.2,1.5-1.9.6-.6,1.2-1.3,1.8-2.1,0,0,0,0,0,0l.2.2.2-.2c.4-.4.8-.7,1.2-.7s.6.1.8.3c.7.7.5,1.6,0,2.3l-.2.2h.2c0,.1,0,.2.1.2-.6.7-1.1,1.5-1.6,2.2-.5.7-1,1.4-1.5,2.1h-.6Z"/>
        <path class="st1" d="M52.4,53.5c.1-.3.2-.5.2-.8,0-1-.6-1.9-1.6-2.2v-.6c.8-.4,1.5-.7,2.3-1,.8-.3,1.6-.7,2.4-1.1,0,0,0,0,0,.1v.3s.3-.1.3-.1c.3-.1.6-.2.8-.2.5,0,.9.3,1.2.8.2.4.2.8,0,1.2-.2.4-.5.7-.9.9h-.2c0,.1.1.3.1.3,0,0,0,0,0,.1-.8.4-1.5.9-2.3,1.3-.7.4-1.4.9-2.2,1.2l-.4-.2Z"/>
        <path class="st1" d="M50.1,54.4c-.6,0-1.2,0-1.7,0s-.6,0-.9,0c-.3,0-.6,0-.8,0-.4,0-1,0-1.6,0l-.3-.6h0c0-.2,0-.2,0-.2.5-.4.7-.9.7-1.6,0-.4-.1-.8-.3-1.2.1-.2.1-.3.1-.4v-.2s0,0,0,0c.8,0,1.5.2,2.4.3.8.1,1.7.2,2.6.3,0,0,0,0,0,.1v.2c0,0,.2,0,.2,0,.4,0,.8.2,1.1.5.3.3.4.7.4,1.1,0,.4-.2.8-.5,1-.3.2-.6.3-1,.3h0s0,0-.1,0h-.3s0,.2,0,.2c0,0,0,0,0,.1"/>
        <path class="st1" d="M35.5,42c-1.3,0-2.3,1-2.3,2.3s1,2.3,2.3,2.3c0-.7.6-1.3,1.3-1.3.2,0,.5,0,.7.2.7-1.1.3-2.5-.7-3.2-.4-.2-.8-.3-1.2-.3h0Z"/>
        <path class="st1" d="M44.6,50.7s.3-.1.3-.2c-.1-1.4-.2-2.5-.4-3.3.3-.9.4-1.8.4-2.7,0-2.6-2.4-9-4.7-14.7l2.4,5.6s2.2-1.5,2.3-2.3c.4-4.1-9.2-13.8-9.2-13.8,0,0-9.6,9.7-9.2,13.8,0,.8,2.3,2.3,2.3,2.3l2.4-5.6c-2.3,5.7-4.7,12.2-4.7,14.8,0,1.3.3,2.6.8,3.8,0,.6-.1,1.3-.2,2.2,0,0,.3.2.3.2-.6.8-.7,1.9,0,2.5.8.7,1.7.4,2.3-.4,0,0,.2.2.3.2.7,0,1.5,0,2.2,0,2.2.9,4.8.9,7,0,.9.1,1.8.1,2.7.1,0,0,.3-.2.3-.2.6.8,1.6,1.1,2.3.4.8-.7.7-1.7,0-2.5M35.5,48.9c-.6,0-1.1-.1-1.7-.3h0c-1.2-.5-2.2-1.5-2.6-2.7h0c-.2-.5-.3-1.1-.3-1.6,0-2.5,2.1-4.6,4.6-4.6s4.6,2.1,4.6,4.6-2.1,4.6-4.6,4.6h0Z"/>
      </g>
    </g>
  </g>
</svg>

